first trial																																					
nRows=14																																					
nColumns=38																																					
																																					
# SIMM Motion File Header:																																					
name MVN-015																																					
datacolumns 38																																					
datarows 14																																					
otherdata 1																																					
range 28.015 28.232																																					
endheader																																					
time	pelvis_tilt	pelvis_list	pelvis_rotation	pelvis_tx	pelvis_ty	pelvis_tz	hip_flexion_r	hip_adduction_r	hip_rotation_r	knee_angle_r	ankle_angle_r	subtalar_angle_r	mtp_angle_r	hip_flexion_l	hip_adduction_l	hip_rotation_l	knee_angle_l	ankle_angle_l	subtalar_angle_l	mtp_angle_l	lumbar_extension	lumbar_bending	lumbar_rotation	arm_flex_r	arm_add_r	arm_rot_r	elbow_flex_r	pro_sup_r	wrist_flex_r	wrist_dev_r	arm_flex_l	arm_add_l	arm_rot_l	elbow_flex_l	pro_sup_l	wrist_flex_l	wrist_dev_l
28.015	-3.2964	0.406	89.4996	-0.3797	0.8312	0.3396	39.5909	-18.7145	5.9667	18.9746	-18.5704	17.1003	0	47.797	-7.2439	1.047	33.0806	-13.1937	3.5325	0	1.4631	1.6223	1.5284	33.3417	-13.7345	4.3836	43.1855	18.947	-15.8636	-22.9588	23.9511	-35.4569	4.3548	36.9985	113.2651	-7.0068	13.8987
28.032	-3.3057	0.4066	89.4965	-0.3797	0.8312	0.3395	39.6012	-18.7068	5.9745	18.9808	-18.5621	17.0887	0	47.8046	-7.2446	1.043	33.0844	-13.1885	3.5337	0	1.4771	1.6321	1.5107	33.2768	-13.6863	4.3407	43.1395	19.0307	-15.8944	-22.9111	23.9033	-35.4839	4.3311	37.0216	113.2384	-7.0219	13.904
28.049	-3.3118	0.4072	89.4946	-0.3797	0.8312	0.3395	39.6068	-18.7015	5.9804	18.9853	-18.5555	17.0824	0	47.809	-7.2434	1.0421	33.0877	-13.1832	3.5331	0	1.4909	1.6398	1.4961	33.2253	-13.6483	4.3086	43.098	19.0973	-15.8932	-22.8937	23.8746	-35.5085	4.3198	37.0291	113.212	-7.0359	13.9067
28.065	-3.3135	0.408	89.4944	-0.3797	0.8312	0.3395	39.6055	-18.7001	5.985	18.9863	-18.5516	17.0845	0	47.8084	-7.2393	1.0453	33.0895	-13.1774	3.5291	0	1.5035	1.644	1.4863	33.2017	-13.6297	4.3001	43.0539	19.147	-15.8445	-22.9296	23.88	-35.5295	4.3284	37.0109	113.1861	-7.0493	13.9062
28.082	-3.3118	0.409	89.4956	-0.3797	0.8312	0.3394	39.5996	-18.7012	5.9876	18.9855	-18.5494	17.0918	0	47.8046	-7.2335	1.0515	33.0908	-13.1714	3.5232	0	1.5158	1.6461	1.4795	33.1916	-13.6214	4.3023	43.0145	19.1796	-15.7636	-22.9956	23.9045	-35.5481	4.3494	36.9772	113.1603	-7.0616	13.9031
28.099	-3.3067	0.4089	89.4983	-0.3797	0.8312	0.3394	39.5911	-18.7033	5.9889	18.9864	-18.5457	17.0962	0	47.7992	-7.2287	1.0586	33.0935	-13.1655	3.5188	0	1.5307	1.6486	1.472	33.1886	-13.6098	4.3159	42.9701	19.18	-15.7101	-23.0631	23.9222	-35.5611	4.3617	36.9426	113.1476	-7.0703	13.9003
28.115	-3.2974	0.4072	89.5024	-0.3797	0.8312	0.3394	39.5803	-18.7062	5.99	18.9905	-18.5389	17.0937	0	47.7926	-7.2264	1.0666	33.0991	-13.1595	3.5171	0	1.5504	1.6535	1.4608	33.1933	-13.5854	4.3423	42.9119	19.1391	-15.7057	-23.1175	23.9199	-35.5646	4.3514	36.9111	113.1593	-7.0738	13.8983
28.132	-3.2845	0.4045	89.5081	-0.3798	0.8312	0.3394	39.5669	-18.71	5.9898	18.9961	-18.5306	17.0883	0	47.7845	-7.2253	1.0754	33.1061	-13.1537	3.5169	0	1.5727	1.6589	1.4487	33.2049	-13.5577	4.38	42.8489	19.066	-15.7288	-23.1734	23.9107	-35.5623	4.3324	36.8786	113.184	-7.0737	13.8966
28.149	-3.2715	0.4021	89.5147	-0.3798	0.8312	0.3393	39.5528	-18.7146	5.986	19.0017	-18.523	17.0846	0	47.7758	-7.2234	1.0833	33.1123	-13.1493	3.5177	0	1.5936	1.6615	1.4407	33.2146	-13.5425	4.4247	42.7983	18.9733	-15.7742	-23.2461	23.9086	-35.5628	4.3248	36.8478	113.1997	-7.0712	13.897
28.165	-3.2579	0.4002	89.5228	-0.3798	0.8312	0.3393	39.537	-18.7203	5.9754	19.007	-18.5168	17.0849	0	47.7659	-7.22	1.0896	33.1167	-13.1475	3.5199	0	1.6111	1.659	1.4394	33.2174	-13.5495	4.4831	42.7633	18.8527	-15.8508	-23.3506	23.921	-35.5715	4.3446	36.8196	113.1902	-7.0663	13.9005
28.182	-3.244	0.3985	89.5317	-0.3798	0.8312	0.3393	39.5204	-18.7267	5.9612	19.0123	-18.5113	17.0868	0	47.7554	-7.216	1.0949	33.1203	-13.1472	3.5231	0	1.6274	1.6538	1.4421	33.2183	-13.569	4.5486	42.7408	18.7126	-15.9495	-23.4718	23.9406	-35.5829	4.3759	36.7932	113.1717	-7.0591	13.9061
28.199	-3.2344	0.3973	89.5396	-0.3798	0.8312	0.3393	39.5072	-18.7324	5.9508	19.0161	-18.506	17.0875	0	47.7478	-7.2125	1.099	33.1237	-13.1459	3.5258	0	1.6449	1.6496	1.4461	33.2233	-13.5874	4.5974	42.7386	18.5908	-16.0388	-23.5807	23.9587	-35.5883	4.3919	36.7681	113.1699	-7.0508	13.9127
28.215	-3.2312	0.397	89.5455	-0.3798	0.8312	0.3392	39.499	-18.7374	5.9472	19.0176	-18.5011	17.0863	0	47.7448	-7.2101	1.1022	33.1268	-13.143	3.5277	0	1.6654	1.6479	1.4534	33.229	-13.5976	4.6109	42.7686	18.4983	-16.0984	-23.6631	23.9785	-35.5797	4.3887	36.7393	113.2011	-7.04	13.9206
28.232	-3.2324	0.3972	89.5502	-0.3798	0.8312	0.3392	39.4942	-18.7417	5.9473	19.0178	-18.4964	17.0839	0	47.7447	-7.2082	1.1042	33.1297	-13.139	3.5291	0	1.6872	1.6473	1.462	33.2389	-13.6068	4.6078	42.8188	18.4243	-16.1487	-23.7331	23.9969	-35.5652	4.3701	36.7119	113.2491	-7.028	13.9294
